<svg xmlns="http://www.w3.org/2000/svg" xmlns:xlink="http://www.w3.org/1999/xlink" width="500" zoomAndPan="magnify" viewBox="0 0 375 374.999991" height="500" preserveAspectRatio="xMidYMid meet" version="1.0"><defs><g/><clipPath id="06dcc79f09"><path d="M 52 41 L 323 41 L 323 301.949219 L 52 301.949219 Z M 52 41 " clip-rule="nonzero"/></clipPath></defs><g clip-path="url(#06dcc79f09)"><path fill="#ff9999" d="M 58.179688 171.730469 C 56.863281 169.726562 55.753906 167.5625 54.90625 165.296875 C 51.5625 156.464844 52.007812 146.601562 54.90625 137.738281 C 58.015625 128.242188 63.976562 119.675781 71.730469 113.394531 C 74.917969 110.808594 78.375 108.625 82.09375 106.878906 C 81.910156 96.699219 85.046875 87.078125 91.902344 79.457031 C 98.683594 71.949219 108.050781 67.542969 117.886719 65.667969 C 120.070312 65.273438 122.261719 64.984375 124.476562 64.800781 C 124.632812 64.242188 124.796875 63.71875 124.980469 63.191406 C 135.792969 30.464844 178.269531 37.214844 182.804688 69.597656 C 182.859375 69.917969 182.859375 70.230469 182.859375 70.550781 L 182.859375 169.882812 L 198.152344 169.882812 C 200.710938 169.882812 202.824219 171.96875 202.824219 174.527344 L 202.824219 272.917969 C 202.851562 273.183594 202.851562 273.445312 202.851562 273.710938 C 202.667969 278.007812 203.480469 282.46875 206.570312 285.683594 C 209.8125 289.085938 214.769531 290.429688 219.304688 290.722656 C 222.546875 290.90625 225.765625 290.667969 228.929688 289.90625 C 235.046875 288.453125 240.53125 285.1875 244.617188 280.363281 C 248.648438 275.589844 250.972656 269.683594 251.371094 263.433594 L 251.371094 263.351562 C 251.582031 260.214844 251.261719 257.074219 250.527344 254.019531 C 249.3125 248.796875 246.945312 243.496094 243.25 239.539062 C 241.304688 237.429688 238.769531 235.535156 235.921875 234.820312 C 233.496094 234.191406 231.121094 234.53125 228.90625 235.71875 C 225.929688 237.300781 223.53125 240.175781 221.761719 242.996094 C 220.234375 245.472656 216.90625 246.238281 214.429688 244.683594 C 211.953125 243.15625 211.183594 239.832031 212.738281 237.351562 C 215.535156 232.894531 219.203125 228.835938 223.867188 226.328125 C 228.453125 223.878906 233.546875 223.21875 238.582031 224.511719 C 243.089844 225.644531 247.074219 228.257812 250.316406 231.523438 C 261.550781 222.027344 274.15625 222.1875 283.546875 235.875 C 285.207031 238.296875 284.574219 241.625 282.148438 243.285156 C 279.722656 244.949219 276.398438 244.316406 274.734375 241.886719 C 269.25 233.84375 262.734375 234.742188 256.617188 240.148438 C 258.566406 243.734375 259.964844 247.589844 260.914062 251.539062 C 261.546875 254.152344 261.917969 256.839844 262.046875 259.53125 C 270.859375 260.929688 279.296875 258.078125 285.148438 250.984375 C 287.570312 248.03125 289.34375 244.550781 290.316406 240.855469 C 291.320312 237.164062 291.476562 233.289062 290.761719 229.542969 C 288.339844 217.148438 277.207031 210.476562 265.761719 207.707031 C 262.914062 207.019531 261.148438 204.121094 261.832031 201.269531 C 262.519531 198.421875 265.417969 196.65625 268.269531 197.339844 C 280.132812 200.210938 291.238281 206.382812 297.328125 217.039062 C 307.976562 207.203125 311.566406 193.941406 308.214844 180.042969 C 303.945312 182.496094 298.957031 183.582031 293.976562 183.5 C 290.203125 183.417969 286.433594 182.683594 282.898438 181.386719 C 280.757812 180.59375 278.675781 179.597656 276.726562 178.410156 C 272.058594 178.726562 267.15625 180.492188 263.464844 183.261719 C 254.707031 189.90625 252.914062 201.589844 253.390625 211.898438 C 253.546875 214.824219 251.253906 217.332031 248.324219 217.464844 C 245.398438 217.621094 242.894531 215.328125 242.761719 212.402344 C 242.414062 205.417969 242.945312 198.132812 245.183594 191.441406 C 227.78125 191.230469 215.546875 181.605469 213.777344 162.433594 C 213.511719 159.535156 215.675781 156.921875 218.601562 156.660156 C 221.5 156.394531 224.113281 158.558594 224.378906 161.484375 C 225.144531 169.839844 228.648438 176.515625 236.902344 179.335938 C 241.226562 180.835938 246.449219 181.054688 251.0625 180.417969 C 255.257812 175.140625 260.84375 171.53125 267.175781 169.5 C 264.25 165.203125 262.667969 160.195312 262.773438 154.839844 C 262.824219 151.886719 265.25 149.566406 268.175781 149.617188 C 271.128906 149.671875 273.476562 152.097656 273.394531 155.050781 C 273.316406 160.113281 275.902344 164.4375 279.75 167.574219 C 281.753906 169.210938 284.101562 170.472656 286.523438 171.367188 C 288.976562 172.265625 291.5625 172.792969 294.175781 172.847656 C 298.894531 172.929688 303.507812 171.449219 306.597656 167.730469 C 306.648438 167.648438 306.703125 167.574219 306.78125 167.492188 C 308.203125 165.699219 309.339844 163.699219 310.152344 161.535156 C 312.632812 155.015625 312.128906 147.609375 309.96875 141.046875 C 307.492188 133.503906 302.746094 126.675781 296.578125 121.691406 C 294.96875 120.375 293.277344 119.214844 291.484375 118.15625 C 290.855469 120.84375 289.984375 123.484375 288.875 126.015625 C 288.160156 127.652344 287.34375 129.207031 286.421875 130.734375 C 288.058594 136.328125 291.933594 140.625 298.261719 140.625 C 301.214844 140.625 303.617188 143 303.617188 145.953125 C 303.617188 148.90625 301.214844 151.28125 298.261719 151.28125 C 289.347656 151.28125 282.703125 146.875 278.71875 139.652344 C 277.613281 140.550781 276.425781 141.371094 275.210938 142.078125 C 267.960938 146.375 259.734375 147.113281 251.582031 145.558594 C 247.359375 144.746094 243.246094 143.375 239.320312 141.628906 C 236.632812 140.46875 235.390625 137.304688 236.578125 134.617188 C 237.765625 131.929688 240.929688 130.714844 243.617188 131.875 C 246.78125 133.273438 250.132812 134.433594 253.5625 135.09375 C 259.101562 136.144531 264.824219 135.832031 269.777344 132.90625 C 274.078125 130.375 277.136719 126.261719 279.113281 121.726562 C 280.21875 119.222656 281.011719 116.582031 281.515625 113.894531 C 281.753906 112.601562 281.964844 111.28125 282.09375 109.960938 C 282.09375 109.855469 282.09375 109.777344 282.121094 109.671875 C 282.199219 108.746094 282.25 107.796875 282.277344 106.847656 C 282.433594 99.359375 280.273438 92.238281 275.183594 86.621094 C 269.988281 80.84375 262.6875 77.597656 255.164062 76.179688 C 254.242188 75.996094 253.320312 75.835938 252.398438 75.730469 C 252.578125 78.683594 252.527344 81.664062 252.265625 84.617188 C 251.710938 90.65625 250.15625 96.773438 247.496094 102.285156 C 253.085938 106.1875 258.59375 105.769531 263.210938 99.359375 C 264.925781 96.957031 268.273438 96.433594 270.648438 98.144531 C 273.050781 99.863281 273.574219 103.183594 271.863281 105.558594 C 267.300781 111.9375 260.996094 116.472656 252.851562 115.605469 C 248.84375 115.183594 244.988281 113.492188 241.644531 111.199219 C 233.707031 120.269531 222.683594 123.410156 210.5 120.769531 C 207.628906 120.164062 205.78125 117.316406 206.386719 114.441406 C 206.992188 111.59375 209.839844 109.726562 212.714844 110.355469 C 222.574219 112.46875 230.75 109.277344 236.132812 100.839844 C 236.183594 100.730469 236.238281 100.65625 236.316406 100.546875 C 236.421875 100.363281 236.550781 100.179688 236.660156 99.96875 C 239.558594 95.089844 241.140625 89.265625 241.671875 83.644531 C 242.199219 77.976562 241.695312 71.964844 239.933594 66.53125 C 232.644531 44.46875 205.878906 49.980469 202.84375 70.734375 L 202.84375 147.917969 C 202.84375 150.84375 200.441406 153.246094 197.515625 153.246094 C 194.589844 153.246094 192.1875 150.84375 192.1875 147.917969 L 192.1875 70.550781 C 192.160156 70.230469 192.1875 69.917969 192.242188 69.597656 C 196.777344 37.214844 239.261719 30.464844 250.070312 63.191406 C 250.226562 63.71875 250.414062 64.242188 250.570312 64.800781 C 252.757812 64.984375 254.976562 65.273438 257.164062 65.667969 C 267 67.542969 276.359375 71.949219 283.140625 79.460938 C 289.996094 87.085938 293.105469 96.710938 292.949219 106.886719 C 296.640625 108.625 300.125 110.816406 303.3125 113.402344 C 311.066406 119.679688 317 128.246094 320.113281 137.742188 C 323.039062 146.601562 323.488281 156.464844 320.140625 165.300781 C 319.269531 167.570312 318.191406 169.734375 316.871094 171.734375 C 319.375 178.75 320.480469 186.738281 319.902344 194.070312 C 318.851562 207.964844 312.042969 219.226562 301.257812 227.664062 C 302.261719 232.9375 301.996094 238.367188 300.625 243.566406 C 299.253906 248.734375 296.777344 253.585938 293.375 257.726562 C 285.277344 267.5625 273.492188 271.886719 261.152344 270.148438 C 259.78125 276.449219 256.929688 282.304688 252.742188 287.234375 C 247.203125 293.796875 239.714844 298.3125 231.378906 300.289062 C 227.214844 301.265625 222.941406 301.605469 218.671875 301.339844 C 211.316406 300.890625 204.011719 298.46875 198.84375 293.03125 C 193.992188 287.941406 192.089844 281.351562 192.171875 274.441406 L 192.171875 179.191406 L 176.878906 179.191406 C 174.320312 179.191406 172.210938 177.082031 172.210938 174.523438 L 172.210938 70.734375 C 169.148438 49.980469 142.382812 44.46875 135.105469 66.511719 C 133.3125 71.941406 132.839844 77.957031 133.367188 83.625 C 133.898438 89.238281 135.476562 95.070312 138.378906 99.949219 C 138.484375 100.160156 138.589844 100.34375 138.722656 100.527344 C 138.777344 100.632812 138.851562 100.710938 138.90625 100.816406 C 144.285156 109.253906 152.460938 112.445312 162.324219 110.335938 C 165.195312 109.703125 168.046875 111.578125 168.652344 114.421875 C 169.257812 117.292969 167.410156 120.144531 164.539062 120.75 C 152.355469 123.382812 141.332031 120.246094 133.367188 111.175781 C 130.046875 113.472656 126.191406 115.160156 122.1875 115.582031 C 114.042969 116.453125 107.734375 111.917969 103.175781 105.535156 C 101.457031 103.160156 101.988281 99.839844 104.390625 98.125 C 106.765625 96.40625 110.085938 96.9375 111.828125 99.339844 C 116.417969 105.746094 121.929688 106.167969 127.542969 102.265625 C 124.882812 96.753906 123.320312 90.636719 122.769531 84.59375 C 122.480469 81.644531 122.425781 78.664062 122.640625 75.710938 C 121.71875 75.816406 120.796875 75.972656 119.871094 76.15625 C 112.355469 77.582031 105.027344 80.828125 99.832031 86.597656 C 94.769531 92.210938 92.609375 99.332031 92.765625 106.824219 C 92.765625 107.777344 92.847656 108.726562 92.921875 109.648438 C 92.921875 109.757812 92.949219 109.832031 92.949219 109.941406 C 93.078125 111.257812 93.269531 112.574219 93.527344 113.871094 C 94.03125 116.558594 94.816406 119.199219 95.929688 121.703125 C 97.90625 126.238281 100.964844 130.351562 105.265625 132.882812 C 110.21875 135.808594 115.914062 136.128906 121.480469 135.070312 C 124.910156 134.410156 128.253906 133.25 131.425781 131.851562 C 134.113281 130.691406 137.277344 131.90625 138.464844 134.59375 C 139.625 137.285156 138.410156 140.445312 135.722656 141.609375 C 131.792969 143.347656 127.679688 144.71875 123.460938 145.539062 C 115.289062 147.09375 107.089844 146.351562 99.832031 142.054688 C 98.617188 141.34375 97.429688 140.527344 96.324219 139.632812 C 92.339844 146.855469 85.671875 151.261719 76.753906 151.261719 C 73.828125 151.261719 71.425781 148.886719 71.425781 145.933594 C 71.425781 142.980469 73.828125 140.605469 76.753906 140.605469 C 83.109375 140.605469 86.984375 136.308594 88.59375 130.714844 C 87.699219 129.1875 86.878906 127.625 86.167969 125.996094 C 85.0625 123.464844 84.195312 120.828125 83.535156 118.136719 C 81.769531 119.1875 80.054688 120.347656 78.445312 121.671875 C 72.300781 126.65625 67.554688 133.484375 65.074219 141.023438 C 62.90625 147.589844 62.410156 155 64.890625 161.511719 C 65.703125 163.675781 66.816406 165.679688 68.261719 167.472656 C 68.316406 167.550781 68.394531 167.628906 68.445312 167.710938 C 71.507812 171.429688 76.144531 172.902344 80.867188 172.828125 C 83.453125 172.773438 86.0625 172.25 88.492188 171.347656 C 90.941406 170.453125 93.261719 169.183594 95.292969 167.550781 C 99.140625 164.414062 101.726562 160.09375 101.621094 155.027344 C 101.566406 152.074219 103.914062 149.652344 106.839844 149.597656 C 109.792969 149.542969 112.21875 151.863281 112.269531 154.816406 C 112.378906 160.171875 110.769531 165.183594 107.867188 169.480469 C 114.164062 171.507812 119.785156 175.121094 123.980469 180.394531 C 128.59375 181.027344 133.816406 180.816406 138.140625 179.316406 C 146.367188 176.492188 149.875 169.820312 150.636719 161.464844 C 150.929688 158.539062 153.507812 156.371094 156.441406 156.636719 C 159.339844 156.902344 161.53125 159.507812 161.265625 162.414062 C 159.5 181.582031 147.234375 191.207031 129.832031 191.417969 C 132.070312 198.117188 132.628906 205.394531 132.28125 212.378906 C 132.125 215.304688 129.648438 217.601562 126.71875 217.445312 C 123.765625 217.316406 121.496094 214.808594 121.625 211.878906 C 122.128906 201.566406 120.335938 189.886719 111.554688 183.238281 C 107.886719 180.472656 102.980469 178.707031 98.316406 178.386719 C 96.367188 179.574219 94.285156 180.574219 92.144531 181.367188 C 88.589844 182.65625 84.839844 183.398438 81.066406 183.476562 C 76.058594 183.558594 71.101562 182.472656 66.800781 180.023438 C 63.453125 193.917969 67.066406 207.183594 77.714844 217.019531 C 83.804688 206.367188 94.910156 200.195312 106.773438 197.320312 C 109.597656 196.632812 112.496094 198.398438 113.183594 201.25 C 113.894531 204.097656 112.128906 207 109.28125 207.683594 C 97.835938 210.453125 86.710938 217.125 84.28125 229.519531 C 83.539062 233.265625 83.722656 237.144531 84.703125 240.835938 C 85.679688 244.527344 87.472656 248.011719 89.894531 250.960938 C 95.726562 258.054688 104.164062 260.90625 112.996094 259.507812 C 113.125 256.820312 113.496094 254.132812 114.128906 251.519531 C 115.050781 247.5625 116.476562 243.710938 118.425781 240.128906 C 112.308594 234.722656 105.792969 233.828125 100.28125 241.867188 C 98.617188 244.289062 95.324219 244.925781 92.894531 243.265625 C 90.472656 241.601562 89.835938 238.28125 91.496094 235.851562 C 100.859375 222.167969 113.492188 222.003906 124.726562 231.5 C 127.96875 228.230469 131.949219 225.621094 136.460938 224.488281 C 141.496094 223.199219 146.589844 223.859375 151.175781 226.308594 C 155.847656 228.8125 159.511719 232.871094 162.277344 237.332031 C 163.832031 239.808594 163.070312 243.136719 160.585938 244.664062 C 158.109375 246.21875 154.808594 245.457031 153.253906 242.972656 C 151.488281 240.148438 149.113281 237.277344 146.136719 235.695312 C 143.921875 234.507812 141.546875 234.167969 139.09375 234.800781 C 136.273438 235.511719 133.738281 237.414062 131.792969 239.519531 C 128.097656 243.476562 125.722656 248.777344 124.488281 253.996094 C 123.773438 257.058594 123.457031 260.195312 123.644531 263.332031 L 123.671875 263.410156 C 124.039062 269.664062 126.386719 275.570312 130.425781 280.339844 C 134.484375 285.167969 139.996094 288.4375 146.113281 289.886719 C 149.25 290.652344 152.496094 290.890625 155.738281 290.699219 C 160.273438 290.410156 165.234375 289.0625 168.472656 285.664062 C 171.535156 282.445312 172.375 277.992188 172.191406 273.691406 C 172.191406 273.425781 172.191406 273.160156 172.21875 272.894531 L 172.21875 200.316406 C 172.21875 197.390625 174.621094 194.988281 177.546875 194.988281 C 180.472656 194.988281 182.875 197.390625 182.875 200.316406 L 182.875 274.441406 C 182.957031 281.351562 181.058594 287.941406 176.203125 293.03125 C 171.039062 298.464844 163.707031 300.890625 156.375 301.339844 C 152.105469 301.605469 147.828125 301.257812 143.667969 300.289062 C 135.3125 298.3125 127.84375 293.796875 122.304688 287.234375 C 118.113281 282.304688 115.238281 276.449219 113.867188 270.148438 C 101.554688 271.886719 89.765625 267.5625 81.671875 257.726562 C 78.273438 253.585938 75.792969 248.734375 74.421875 243.566406 C 73.023438 238.375 72.789062 232.9375 73.792969 227.664062 C 63.003906 219.226562 56.203125 207.964844 55.125 194.070312 C 54.566406 186.734375 55.675781 178.742188 58.179688 171.730469 Z M 58.179688 171.730469 " fill-opacity="1" fill-rule="evenodd"/></g><g fill="#000000" fill-opacity="1"><g transform="translate(126.901682, 337.949978)"><g><path d="M 16.4375 0 C 17.914062 0 19.175781 -0.519531 20.21875 -1.5625 C 21.257812 -2.601562 21.78125 -3.863281 21.78125 -5.34375 L 21.78125 -11.46875 C 21.78125 -12.9375 21.257812 -14.191406 20.21875 -15.234375 C 19.175781 -16.285156 17.914062 -16.8125 16.4375 -16.8125 L 7.109375 -16.8125 C 5.628906 -16.8125 4.367188 -16.285156 3.328125 -15.234375 C 2.285156 -14.191406 1.765625 -12.9375 1.765625 -11.46875 L 1.765625 -5.34375 C 1.765625 -3.863281 2.285156 -2.601562 3.328125 -1.5625 C 4.367188 -0.519531 5.628906 0 7.109375 0 Z M 16.4375 -2.671875 L 7.109375 -2.671875 C 6.359375 -2.671875 5.722656 -2.929688 5.203125 -3.453125 C 4.691406 -3.972656 4.4375 -4.601562 4.4375 -5.34375 L 4.4375 -11.46875 C 4.4375 -12.207031 4.691406 -12.835938 5.203125 -13.359375 C 5.722656 -13.878906 6.359375 -14.140625 7.109375 -14.140625 L 16.4375 -14.140625 C 17.175781 -14.140625 17.804688 -13.878906 18.328125 -13.359375 C 18.847656 -12.835938 19.109375 -12.207031 19.109375 -11.46875 L 19.109375 -5.34375 C 19.109375 -4.601562 18.847656 -3.972656 18.328125 -3.453125 C 17.804688 -2.929688 17.175781 -2.671875 16.4375 -2.671875 Z M 16.4375 -2.671875 "/></g></g></g><g fill="#000000" fill-opacity="1"><g transform="translate(150.433159, 337.949978)"><g><path d="M 17.734375 0 L 17.734375 -2.671875 L 5.015625 -2.671875 L 5.015625 -16.8125 L 2.34375 -16.8125 L 2.34375 0 Z M 17.734375 0 "/></g></g></g><g fill="#000000" fill-opacity="1"><g transform="translate(168.974886, 337.949978)"><g><path d="M 5.015625 0 L 5.015625 -16.8125 L 2.34375 -16.8125 L 2.34375 0 Z M 5.015625 0 "/></g></g></g><g fill="#000000" fill-opacity="1"><g transform="translate(176.330667, 337.949978)"><g><path d="M 13.125 0 L 11.703125 0 L 0.359375 -16.8125 L 3.578125 -16.8125 L 12.421875 -3.71875 L 21.265625 -16.8125 L 24.53125 -16.8125 Z M 13.125 0 "/></g></g></g><g fill="#000000" fill-opacity="1"><g transform="translate(201.19743, 337.949978)"><g><path d="M 21.03125 0 L 2.34375 0 L 2.34375 -16.8125 L 21.03125 -16.8125 L 21.03125 -14.140625 L 5.015625 -14.140625 L 5.015625 -9.734375 L 19.140625 -9.734375 L 19.140625 -7.0625 L 5.015625 -7.0625 L 5.015625 -2.671875 L 21.03125 -2.671875 Z M 21.03125 0 "/></g></g></g><g fill="#000000" fill-opacity="1"><g transform="translate(223.979273, 337.949978)"><g><path d="M 22.375 0 L 19.703125 0 L 19.703125 -4.734375 C 19.703125 -5.097656 19.570312 -5.410156 19.3125 -5.671875 C 19.050781 -5.941406 18.734375 -6.078125 18.359375 -6.078125 L 5.015625 -6.078125 L 5.015625 0 L 2.34375 0 L 2.34375 -16.8125 L 18.359375 -16.8125 C 19.460938 -16.8125 20.40625 -16.421875 21.1875 -15.640625 C 21.976562 -14.859375 22.375 -13.914062 22.375 -12.8125 L 22.375 -10.078125 C 22.375 -9.046875 22.03125 -8.15625 21.34375 -7.40625 C 22.03125 -6.644531 22.375 -5.753906 22.375 -4.734375 Z M 18.359375 -8.75 C 18.734375 -8.75 19.050781 -8.878906 19.3125 -9.140625 C 19.570312 -9.398438 19.703125 -9.710938 19.703125 -10.078125 L 19.703125 -12.8125 C 19.703125 -13.175781 19.570312 -13.488281 19.3125 -13.75 C 19.050781 -14.007812 18.734375 -14.140625 18.359375 -14.140625 L 5.015625 -14.140625 L 5.015625 -8.75 Z M 18.359375 -8.75 "/></g></g></g></svg>